<svg width="640" height="442" viewBox="0 0 640 442" fill="none" xmlns="http://www.w3.org/2000/svg">
<g clip-path="url(#clip0_1_936)">
<path opacity="0.67" d="M317.397 442C488.599 442 627.386 421.74 627.386 396.748C627.386 371.756 488.599 351.496 317.397 351.496C146.194 351.496 7.40704 371.756 7.40704 396.748C7.40704 421.74 146.194 442 317.397 442Z" fill="#8BCDE5"/>
<g opacity="0.35">
<path d="M317.382 351.546C150.284 351.546 14.0231 370.802 7.65156 394.978C-8.16938 369.572 1.35195 333.647 28.3914 317.68C35.2807 313.613 43.0905 310.713 49.1599 305.692C67.8574 290.227 62.9817 263.101 67.7711 240.557C72.9201 216.393 91.6895 194.928 116.514 184.849C143.036 174.091 175.483 175.547 198.366 159.317C218.703 144.894 225.851 120.404 237.573 99.6421C264.425 51.9425 320.518 19.946 379.372 14.1468C438.226 8.34748 498.561 27.352 544.197 61.4573C568.648 79.6961 589.603 102.881 598.492 130.358C611.968 172.045 596.147 216.23 590.667 259.411C589.92 265.298 589.402 271.411 591.502 276.984C596.377 290.026 612.946 295.688 623.748 305.391C645.724 325.111 641.007 357.71 634.808 385.137L627.358 396.434C626.351 371.631 487.99 351.546 317.382 351.546Z" fill="#8BCDE5"/>
</g>
<path opacity="0.67" d="M565.124 407.016C594.038 407.016 617.477 403.459 617.477 399.07C617.477 394.682 594.038 391.125 565.124 391.125C536.21 391.125 512.771 394.682 512.771 399.07C512.771 403.459 536.21 407.016 565.124 407.016Z" fill="#8BCDE5"/>
<path d="M100.909 46.4695L94.2352 29.3478L74.4446 23.9879L94.753 17.8748L101.196 0L107.87 17.1217L127.661 22.469L106.935 29.0215L100.909 46.4695Z" fill="#8BCDE5"/>
<path d="M492.376 106.521L485.703 89.3991L465.912 84.0392L486.22 77.9261L492.678 60.0513L499.337 77.1604L519.128 82.5203L498.403 89.0727L492.376 106.521Z" fill="#8BCDE5"/>
<path d="M552.568 117.718L549.159 108.994L539.077 106.257L549.432 103.144L552.712 94.031L556.12 102.755L566.203 105.491L555.631 108.83L552.568 117.718Z" fill="white"/>
<path d="M93.0414 256.888L89.6471 248.164L79.5649 245.427L89.906 242.314L93.1997 233.201L96.594 241.925L106.691 244.662L96.1193 247.988L93.0414 256.888Z" fill="white"/>
<path d="M517.388 139.095L513.979 130.371L503.897 127.634L514.238 124.521L517.531 115.408L520.926 124.132L531.022 126.868L520.451 130.207L517.388 139.095Z" fill="#8BCDE5"/>
<path d="M154.499 99.9559L151.104 91.2319L141.022 88.4955L151.363 85.3824L154.657 76.2693L158.051 84.9933L168.148 87.7298L157.576 91.0562L154.499 99.9559Z" fill="#8BCDE5"/>
<path d="M130.782 59.5492C130.784 60.0636 130.612 60.5672 130.287 60.9962C129.961 61.4251 129.497 61.7601 128.954 61.9587C128.41 62.1573 127.811 62.2106 127.232 62.1117C126.654 62.0129 126.122 61.7664 125.704 61.4035C125.287 61.0406 125.002 60.5777 124.885 60.0733C124.769 59.5689 124.828 59.0458 125.052 58.5703C125.277 58.0948 125.659 57.6882 126.149 57.4022C126.639 57.1161 127.215 56.9634 127.804 56.9634C128.592 56.9634 129.347 57.2354 129.905 57.72C130.462 58.2046 130.778 58.8622 130.782 59.5492Z" fill="#8BCDE5"/>
<path d="M591.832 182.614C591.832 183.128 591.658 183.631 591.331 184.058C591.003 184.485 590.538 184.818 589.994 185.015C589.45 185.211 588.852 185.263 588.274 185.163C587.697 185.062 587.166 184.815 586.75 184.452C586.334 184.088 586.05 183.625 585.935 183.121C585.82 182.617 585.879 182.095 586.105 181.62C586.33 181.145 586.711 180.739 587.201 180.454C587.691 180.168 588.266 180.016 588.855 180.016C589.645 180.016 590.402 180.29 590.96 180.777C591.519 181.264 591.832 181.925 591.832 182.614Z" fill="#8BCDE5"/>
<path d="M586.54 216.983C586.542 217.498 586.37 218.001 586.045 218.43C585.719 218.859 585.255 219.194 584.712 219.393C584.168 219.591 583.569 219.645 582.99 219.546C582.412 219.447 581.88 219.2 581.462 218.838C581.044 218.475 580.76 218.012 580.643 217.507C580.527 217.003 580.586 216.48 580.81 216.004C581.035 215.529 581.417 215.122 581.907 214.836C582.397 214.55 582.973 214.397 583.562 214.397C584.349 214.397 585.105 214.669 585.662 215.154C586.22 215.639 586.536 216.296 586.54 216.983Z" fill="#8BCDE5"/>
<path d="M552.395 211.033C552.395 211.547 552.22 212.05 551.893 212.477C551.566 212.904 551.101 213.237 550.557 213.434C550.013 213.63 549.415 213.682 548.837 213.582C548.26 213.481 547.729 213.234 547.313 212.871C546.896 212.507 546.613 212.044 546.498 211.54C546.383 211.036 546.442 210.514 546.667 210.039C546.893 209.564 547.274 209.158 547.764 208.873C548.253 208.587 548.829 208.435 549.418 208.435C549.809 208.433 550.197 208.499 550.559 208.629C550.922 208.759 551.25 208.951 551.527 209.192C551.804 209.434 552.023 209.721 552.172 210.037C552.321 210.353 552.397 210.692 552.395 211.033Z" fill="#8BCDE5"/>
<path d="M82.2257 157.258C82.2285 157.773 82.056 158.277 81.7299 158.706C81.4039 159.136 80.9391 159.471 80.3945 159.669C79.8499 159.867 79.2501 159.92 78.6712 159.82C78.0923 159.72 77.5605 159.472 77.1433 159.108C76.7261 158.744 76.4422 158.28 76.3278 157.775C76.2134 157.269 76.2736 156.746 76.5007 156.271C76.7278 155.795 77.1116 155.39 77.6034 155.105C78.0952 154.82 78.6728 154.67 79.2629 154.672C80.0475 154.676 80.7989 154.949 81.3537 155.433C81.9085 155.918 82.2219 156.573 82.2257 157.258Z" fill="#8BCDE5"/>
<path d="M64.3912 138.241C64.3912 138.755 64.2162 139.258 63.8884 139.686C63.5606 140.113 63.0948 140.446 62.55 140.643C62.0051 140.839 61.4057 140.89 60.8278 140.788C60.2499 140.687 59.7195 140.438 59.3037 140.074C58.8879 139.709 58.6055 139.245 58.4922 138.74C58.379 138.235 58.44 137.712 58.6675 137.238C58.8951 136.763 59.2789 136.358 59.7704 136.074C60.2619 135.79 60.8389 135.64 61.4284 135.643C61.8187 135.643 62.2051 135.71 62.5655 135.841C62.9259 135.971 63.2532 136.163 63.5285 136.404C63.8038 136.646 64.0217 136.932 64.1698 137.248C64.3178 137.563 64.3931 137.9 64.3912 138.241Z" fill="#8BCDE5"/>
<path d="M474.685 41.7748C474.688 42.2893 474.516 42.7928 474.191 43.2218C473.865 43.6507 473.401 43.9857 472.858 44.1843C472.314 44.3829 471.715 44.4362 471.136 44.3373C470.558 44.2385 470.026 43.992 469.608 43.6291C469.19 43.2663 468.905 42.8033 468.789 42.2989C468.673 41.7945 468.731 41.2715 468.956 40.7959C469.181 40.3204 469.563 39.9139 470.053 39.6278C470.543 39.3417 471.119 39.189 471.708 39.189C472.099 39.1873 472.485 39.253 472.847 39.3822C473.208 39.5114 473.536 39.7016 473.813 39.9419C474.089 40.1822 474.309 40.4678 474.459 40.7823C474.608 41.0969 474.685 41.4342 474.685 41.7748Z" fill="#8BCDE5"/>
<g opacity="0.48">
<path d="M159.101 251.051C143.789 231.931 130.007 211.912 117.852 191.137C108.137 174.439 100.054 157.055 93.6887 139.17L95.1269 102.115C95.6879 87.4284 95.5009 70.9469 83.6208 60.5283C80.7443 58.0178 76.6164 55.8462 72.6468 56.7625C68.0012 57.8923 65.9157 62.5492 64.9809 66.679C59.2278 92.2486 71.9565 118.144 89.1006 139.735C91.0566 145.383 93.2284 151.032 95.5728 156.518C104.979 178.204 116.609 199.105 130.321 218.966C137.973 230.264 146.142 241.247 154.772 252.03C155.462 253.059 159.504 251.553 159.101 251.051Z" fill="#4D82A3"/>
</g>
<g opacity="0.48">
<path d="M145.092 241.26C137.725 225.269 131.631 208.853 126.855 192.129C123.059 178.704 120.567 165.024 119.405 151.233L127.517 124.797C130.724 114.316 133.73 102.429 127.172 93.2153C125.575 90.9684 123.029 88.8344 119.98 88.9474C116.428 89.0855 114.04 92.1357 112.573 94.9601C103.526 112.534 107.769 132.969 115.967 151.02C116.298 155.363 116.787 159.706 117.406 164.024C120.025 180.991 124.396 197.716 130.465 213.996C133.816 223.222 137.657 232.323 141.669 241.323C142.072 242.176 145.279 241.687 145.092 241.26Z" fill="#4D82A3"/>
</g>
<g opacity="0.48">
<path d="M200.235 243.846C181.226 239.164 162.614 233.334 144.531 226.398C130.036 220.813 116.108 214.17 102.894 206.539L83.9372 184.773C76.4151 176.137 67.4691 166.798 55.1719 165.681C52.1515 165.417 48.6565 165.869 46.9019 168.028C44.8451 170.539 46.154 174.079 47.8223 176.815C58.2066 193.786 79.3348 203.376 100.707 208.761C104.859 211.188 109.088 213.502 113.393 215.703C130.354 224.292 148.17 231.527 166.623 237.318C177.036 240.645 187.607 243.594 198.265 246.293C199.186 246.482 200.739 243.971 200.235 243.846Z" fill="#4D82A3"/>
</g>
<g opacity="0.48">
<path d="M449.315 279.859C467.096 266.818 483.825 252.722 499.381 237.67C511.844 225.55 523.113 212.533 533.065 198.757L541.407 167.376C544.729 154.936 549.145 141.141 561.787 134.739C564.879 133.17 568.878 132.228 571.956 133.772C575.566 135.63 576.112 139.948 575.839 143.601C574.099 166.196 556.724 185.401 536.761 200.188C533.654 204.539 530.399 208.812 526.995 213.004C513.515 229.378 498.371 244.657 481.747 258.658C472.413 266.616 462.705 274.235 452.766 281.616C451.86 282.269 448.84 280.21 449.315 279.859Z" fill="#4D82A3"/>
</g>
<g opacity="0.48">
<path d="M463.611 274.399C473.902 262.419 483.239 249.837 491.556 236.741C498.223 226.228 503.861 215.243 508.413 203.903C508.413 195.979 508.413 188.05 508.413 180.116C508.413 170.702 508.959 160.133 516.827 153.681C518.754 152.099 521.429 150.819 524.018 151.509C526.967 152.313 528.189 155.35 528.678 158.011C531.756 174.518 522.925 190.849 511.419 204.456C509.981 208.033 508.542 211.586 506.845 215.088C500.269 228.813 492.288 241.992 482.999 254.465C477.807 261.557 472.284 268.449 466.545 275.202C465.898 275.754 463.338 274.712 463.611 274.399Z" fill="#4D82A3"/>
</g>
<g opacity="0.48">
<path d="M416.652 265.737C433.798 265.513 450.906 264.255 467.854 261.971C481.46 260.124 494.864 257.282 507.924 253.473L529.498 238.925C538.041 233.176 547.951 227.075 558.623 228.569C561.226 228.933 564.031 230 564.951 232.159C566.015 234.67 564.016 237.394 561.916 239.364C548.828 251.578 528.621 255.469 509.29 255.796C505.177 257.051 501.035 258.13 496.849 259.135C480.367 262.995 463.519 265.549 446.51 266.767C436.917 267.507 427.28 267.921 417.658 268.085C416.824 268.147 416.206 265.75 416.652 265.737Z" fill="#4D82A3"/>
</g>
<path d="M616.283 356.944C616.281 353.815 615.856 350.697 615.017 347.655H614.255C612.817 342.094 593.63 337.701 570.201 337.701C545.822 337.701 526.046 342.458 526.046 348.345C526.032 348.521 526.032 348.697 526.046 348.873C523.915 357.762 525.341 367.02 530.087 375.102C534.832 383.184 542.61 389.602 552.122 393.284C548.253 394.2 545.88 395.405 545.88 396.723C545.88 399.585 556.969 401.907 570.647 401.907C584.325 401.907 595.414 399.585 595.414 396.723C595.414 395.405 593.041 394.212 589.172 393.284C597.236 390.166 604.09 385.073 608.902 378.623C613.715 372.172 616.279 364.641 616.283 356.944Z" fill="#DC903C"/>
<path opacity="0.11" d="M616.283 356.944C616.281 353.815 615.856 350.697 615.017 347.655H614.255C613.78 345.835 611.378 344.128 607.553 342.634C609.994 345.862 611.445 349.584 611.767 353.442C612.702 363.835 605.697 374.781 595.816 380.317C585.935 385.852 573.049 386.304 561.859 383.781C545.477 380.078 531.123 369.973 525.14 356.906C525.136 364.597 527.689 372.124 532.488 378.574C537.288 385.024 544.128 390.121 552.179 393.246C548.31 394.162 545.937 395.367 545.937 396.685C545.937 399.547 557.026 401.869 570.704 401.869C584.382 401.869 595.471 399.547 595.471 396.685C595.471 395.367 593.098 394.175 589.229 393.246C597.276 390.124 604.113 385.033 608.914 378.591C613.716 372.148 616.275 364.629 616.283 356.944Z" fill="#2B3448"/>
<path d="M570.158 356.969C589.897 356.969 605.899 353.108 605.899 348.346C605.899 343.583 589.897 339.722 570.158 339.722C550.419 339.722 534.417 343.583 534.417 348.346C534.417 353.108 550.419 356.969 570.158 356.969Z" fill="#74471B"/>
<path d="M570.431 352.538C563.513 348.772 556.509 345.006 551.259 339.596C546.009 334.186 542.73 326.855 544.585 319.964C545.491 316.587 547.577 313.387 547.462 309.922C547.289 302.604 538.228 298.336 533.237 292.462C527.24 285.382 527.254 275.842 527.484 267.055C531.166 276.658 543.794 280.725 552.668 287.252C562.52 294.457 568.115 305.315 570.503 316.324C572.89 327.332 572.387 338.667 571.855 349.864L570.431 352.538Z" fill="#5CA28B"/>
<g opacity="0.18">
<path d="M560.19 305.428C553.488 290.591 536.891 282.244 527.585 269.403C527.412 277.512 527.887 286.01 533.338 292.449C538.329 298.336 547.39 302.604 547.562 309.922C547.634 313.387 545.549 316.588 544.686 319.964C542.831 326.856 546.124 334.199 551.359 339.596C555.588 343.725 560.505 347.275 565.944 350.128C567.08 334.877 566.476 319.487 560.19 305.428Z" fill="#2B3448"/>
</g>
<path d="M570.388 352.5C565.93 347.68 563.033 341.906 561.999 335.778C560.964 329.65 561.83 323.392 564.505 317.654C568.302 309.822 575.551 303.018 576.486 294.545C576.961 290.34 575.796 286.122 575.666 281.88C575.504 275.962 577.367 270.137 581.017 265.147C579.132 282.507 593.271 298.587 593.271 316.06C593.271 329.517 570.388 352.5 570.388 352.5Z" fill="#5CA28B"/>
<g opacity="0.18">
<path d="M581.218 286.826C581.621 300.533 579.348 313.387 575.724 326.667C573.768 333.81 573.092 340.061 574.401 346.4C580.106 343.037 584.799 338.524 588.084 333.243C591.369 327.962 593.148 322.068 593.271 316.06C593.271 301.311 583.203 287.541 581.218 273.143C580.938 277.701 580.938 282.268 581.218 286.826Z" fill="#2B3448"/>
</g>
<path d="M570.258 352.45C570.33 341.241 570.906 328.876 579.693 320.705C587.086 313.851 599.038 311.303 605.079 303.495C610.343 296.704 609.681 287.817 611.853 279.846C614.116 271.664 619.409 264.361 626.912 259.072L629.414 283.537C630.407 293.265 631.356 303.307 627.976 312.596C624.323 322.462 615.966 330.584 606.301 336.596C596.636 342.609 585.648 346.764 574.746 350.868L570.258 352.45Z" fill="#5CA28B"/>
<g opacity="0.18">
<path d="M627.645 266.001C624.121 274.173 622.626 283.022 619.49 291.294C614.73 303.847 606.805 314.203 596.478 323.818C587.302 332.379 580.111 339.107 577.061 349.965C587.129 346.199 597.283 342.182 606.244 336.596C615.909 330.584 624.265 322.462 627.918 312.596C631.356 303.307 630.407 293.265 629.357 283.537C628.801 277.687 628.23 271.842 627.645 266.001Z" fill="#2B3448"/>
</g>
<path d="M111.739 360.434L80.5429 369.346C80.5429 369.346 324.085 430.929 335.461 434.895C346.838 438.862 524.392 385.237 524.392 385.237L474.312 371.329L111.739 360.434Z" fill="#8BCDE5"/>
<path d="M205.615 414.485L53.9206 383.355C51.8135 382.929 49.5989 383.248 47.7609 384.243C45.9229 385.238 44.6109 386.828 44.1117 388.664C43.6233 390.502 43.9874 392.433 45.1245 394.037C46.2615 395.64 48.0793 396.787 50.1811 397.225L201.89 428.343L205.615 414.485Z" fill="#2B3448"/>
<g style="mix-blend-mode:overlay" opacity="0.2">
<path d="M44.0253 391.576C44.313 392.936 45.0463 394.193 46.1364 395.195C47.2266 396.198 48.6266 396.903 50.1667 397.225L201.875 428.343L202.997 424.188L44.0253 391.576Z" fill="white"/>
</g>
<path d="M67.9685 386.124L64.1338 400.36L68.3481 401.224L72.1828 386.989L67.9685 386.124Z" fill="#ECB751"/>
<path d="M136.902 400.285L133.067 414.52L137.281 415.385L141.116 401.149L136.902 400.285Z" fill="#ECB751"/>
<path d="M63.8108 389.178L63.3171 391.011L111.732 400.945L112.226 399.112L63.8108 389.178Z" fill="#ECB751"/>
<path d="M201.875 428.343L216.502 426.297L217.754 421.703L205.615 414.485L201.875 428.343Z" fill="#ECB751"/>
<path d="M507.521 382.087L495.21 377.066C479.389 369.534 489.457 324.445 489.457 324.445L348.248 360.107L109.064 308.165C101.168 334.262 107.625 368.63 107.625 368.63L328.759 421.351V421.564L348.147 425.958C513.159 383.957 507.521 382.087 507.521 382.087Z" fill="#DE6C6B"/>
<path d="M351.397 361.011L510.024 319.663L271.013 275.189L109.064 308.152L351.397 361.011Z" fill="#DE6C6B"/>
<path opacity="0.37" d="M112.458 366.823C111.305 362.648 110.488 358.407 110.013 354.132C109.531 349.853 109.344 345.552 109.452 341.253C109.557 336.951 110.038 332.663 110.89 328.425C111.778 324.192 113.201 320.057 115.133 316.098C114.544 318.182 113.695 320.203 113.35 322.312C113.005 324.42 112.429 326.492 112.055 328.588C111.437 332.803 111.062 337.043 110.933 341.291C110.804 345.546 110.933 349.802 111.135 354.057C111.25 356.178 111.422 358.312 111.638 360.434C111.854 362.555 112.185 364.689 112.458 366.823Z" fill="#2B3448"/>
<path opacity="0.37" d="M335.821 419.192C334.675 415.021 333.872 410.785 333.419 406.514C332.937 402.235 332.75 397.934 332.858 393.635C332.977 389.334 333.458 385.046 334.296 380.806C335.214 376.572 336.661 372.438 338.611 368.48C338.036 370.563 337.173 372.572 336.828 374.693C336.483 376.815 335.922 378.873 335.533 380.97C334.915 385.185 334.54 389.425 334.411 393.673C334.282 397.915 334.411 402.171 334.627 406.439C334.728 408.56 334.9 410.694 335.131 412.815C335.361 414.937 335.533 417.071 335.821 419.192Z" fill="#2B3448"/>
<path opacity="0.37" d="M122.353 314.993C139.613 318.709 156.843 322.521 174.045 326.429L225.621 338.203L277.111 350.291L302.827 356.429L328.5 362.706L302.611 357.044L276.852 351.283L225.276 339.496L173.786 327.42C156.598 323.341 139.454 319.236 122.353 314.993Z" fill="#2B3448"/>
<g opacity="0.41">
<path d="M166.753 379.049L119.362 366.936L122.066 319.6L168.694 330.37L166.753 379.049ZM120.973 366.496L165.156 377.794L167.055 330.872L123.561 320.83L120.973 366.496Z" fill="white"/>
<path d="M143.942 349.714L121.864 332.228L145.121 325.613L167.731 343.111L143.942 349.714ZM124.05 332.718L143.999 348.496L165.444 342.546L145.063 326.743L124.05 332.718Z" fill="white"/>
<path d="M142.547 362.254L120.397 344.492L143.74 337.939L166.422 355.714L142.547 362.254ZM122.598 345.032L142.604 361.061L164.178 355.162L143.726 339.107L122.598 345.032Z" fill="white"/>
<path d="M142.043 372.609L119.822 354.622L143.237 348.107L166.005 366.12L142.043 372.609ZM122.023 355.161L142.158 371.404L163.732 365.542L143.179 349.287L122.023 355.161Z" fill="white"/>
</g>
<g opacity="0.41">
<path d="M219.048 392.229L171.585 380.116L174.289 332.793L220.918 343.551L219.048 392.229ZM173.254 379.677L217.437 390.974L219.321 344.015L175.828 333.973L173.254 379.677Z" fill="white"/>
<path d="M196.309 362.844L174.16 345.408L197.402 338.793L220.012 356.291L196.309 362.844ZM176.418 345.873L196.309 361.714L217.739 355.751L197.359 339.96L176.418 345.873Z" fill="white"/>
<path d="M194.871 375.396L172.721 357.647L196.05 351.082L218.746 368.856L194.871 375.396ZM174.879 358.212L194.871 374.241L216.445 368.342L195.964 352.3L174.879 358.212Z" fill="white"/>
<path d="M194.324 385.79L172.103 367.865L195.532 361.35L218.3 379.363L194.324 385.79ZM174.304 368.354L194.439 384.585L216.013 378.735L195.489 362.417L174.304 368.354Z" fill="white"/>
</g>
<g opacity="0.41">
<path d="M272.825 405.409L225.362 393.309L228.08 345.973L274.709 356.743L272.825 405.409ZM227.03 392.857L271.228 404.154L273.112 357.22L229.619 347.178L227.03 392.857Z" fill="white"/>
<path d="M250.014 376.087L227.951 358.601L251.193 351.973L273.817 369.547L250.014 376.087ZM230.123 359.078L250.071 374.856L271.516 368.894L251.121 353.103L230.123 359.078Z" fill="white"/>
<path d="M248.619 388.627L226.513 370.865L249.841 364.3L272.537 382.087L248.619 388.627ZM228.656 371.405L248.676 387.422L270.25 381.522L249.741 365.48L228.656 371.405Z" fill="white"/>
<path d="M248.087 398.97L225.865 380.982L249.28 374.48L272.048 392.493L248.087 398.97ZM228.095 381.535L248.23 397.777L269.804 391.915L249.28 375.597L228.095 381.535Z" fill="white"/>
</g>
<g opacity="0.41">
<path d="M326.659 417.924L279.268 405.811L281.972 358.475L328.63 369.245L326.659 417.924ZM280.879 405.372L325.063 416.669L326.961 369.748L283.468 359.706L280.879 405.372Z" fill="white"/>
<path d="M303.848 388.589L281.771 371.103L305.013 364.488L327.637 381.986L303.848 388.589ZM283.957 371.63L303.906 387.422L325.35 381.459L304.956 365.655L283.957 371.63Z" fill="white"/>
<path d="M302.453 401.129L280.304 383.367L303.633 376.815L326.328 394.589L302.453 401.129ZM282.504 383.907L302.511 399.936L324.085 394.037L303.618 377.982L282.504 383.907Z" fill="white"/>
<path d="M301.95 411.485L279.729 393.497L303.143 386.982L325.911 404.995L301.95 411.485ZM281.929 394.037L302.065 410.28L323.639 404.418L303.115 388.162L281.929 394.037Z" fill="white"/>
</g>
<mask id="mask0_1_936" style="mask-type:luminance" maskUnits="userSpaceOnUse" x="342" y="331" width="159" height="92">
<path d="M352.721 358.839C352.721 358.839 333.951 391.689 346.824 422.631L500.819 379.162C496.954 371.765 494.882 363.751 494.734 355.623C494.585 347.495 496.363 339.427 499.956 331.927L352.721 358.839Z" fill="white"/>
</mask>
<g mask="url(#mask0_1_936)">
<path d="M352.721 358.839C352.721 358.839 333.951 391.689 346.824 422.631L500.819 379.162C500.819 379.162 490.751 349.525 502.919 323.441L352.721 358.839Z" fill="white"/>
<path opacity="0.1" d="M470.213 382.714C448.969 389.806 427.769 395.442 404.973 396.924C382.392 398.392 359.293 393.509 345.414 377.379C342.02 389.643 340.064 406.401 346.852 422.631L500.819 379.162C500.819 379.162 500.042 376.89 499.194 373.061C489.457 376.086 479.849 379.501 470.213 382.714Z" fill="#74471B"/>
<g opacity="0.22">
<path d="M505.548 338.716L338.432 370.97L338.681 371.951L505.797 339.696L505.548 338.716Z" fill="#74471B"/>
<path d="M505.471 346.757L338.984 381.4L339.251 382.376L505.738 347.734L505.471 346.757Z" fill="#74471B"/>
<path d="M504.107 357.486L337.619 392.128L337.886 393.105L504.374 358.462L504.107 357.486Z" fill="#74471B"/>
<path d="M503.052 364.645L337.216 401.591L337.501 402.564L503.337 365.618L503.052 364.645Z" fill="#74471B"/>
<path d="M503.567 372.54L339.209 414.214L339.53 415.178L503.888 373.504L503.567 372.54Z" fill="#74471B"/>
</g>
</g>
<path opacity="0.11" d="M343.458 364.927L108.316 311.479C108.316 311.479 104.533 325.287 106.878 333.257L342.005 388.024L348.765 365.593L343.458 364.927Z" fill="white"/>
<path opacity="0.1" d="M107.625 368.63L348.075 425.933C348.075 425.933 342.696 406.501 342.696 404.518L106.82 352.387C106.82 352.387 105.425 365.078 107.625 368.63Z" fill="#2B3448"/>
<path d="M151.881 256.888C151.881 256.888 147.566 280.072 151.162 295.098C151.162 295.098 300.454 365.894 311.227 368.392C321.999 370.89 527.973 336.483 527.973 336.483L500.646 330.847L499.352 288.47L524.335 284.491L350.693 223.686L151.881 256.888Z" fill="#ECB751"/>
<path d="M507.881 286.964L314.089 313.889C314.089 313.889 302.841 344.994 314.089 362.116L513.332 332.718C510.281 317.598 508.459 302.308 507.881 286.964Z" fill="white"/>
<path opacity="0.1" d="M409.877 343.036C376.38 344.14 339.719 343.124 310.119 329.981C308.479 340.174 308.163 353.103 314.089 362.128L513.332 332.718L513.13 331.751C479.044 337.613 444.583 341.894 409.877 343.036Z" fill="#74471B"/>
<g opacity="0.35">
<path d="M167.745 265.185L159.245 262.273L155.031 277.587L158.857 295.675L167.112 299.428L171.787 284.277L167.745 265.185Z" stroke="#2B3448" stroke-miterlimit="10"/>
<path d="M165.171 273.984L161.431 272.578L159.504 279.369L161.23 287.541L164.926 289.11L166.954 282.357L165.171 273.984Z" fill="#2B3448"/>
<path d="M171.844 301.587L154.858 293.855L155.131 260.553L172.621 266.541L171.844 301.587Z" stroke="#2B3448" stroke-miterlimit="10"/>
<path d="M220.098 283.135L208.534 279.168L202.134 296.403L206.593 317.378L217.725 322.45L224.844 305.479L220.098 283.135Z" stroke="#2B3448" stroke-miterlimit="10"/>
<path d="M216.171 293.077L211.08 291.169L208.146 298.813L210.174 308.303L215.179 310.424L218.243 302.843L216.171 293.077Z" fill="#2B3448"/>
<path d="M224.168 325.374L201.214 314.943L202.983 276.909L226.8 285.056L224.168 325.374Z" stroke="#2B3448" stroke-miterlimit="10"/>
<path d="M293.824 308.416L277.168 302.704L267.057 322.349L272.393 347.304L288.243 354.521L299.591 335.341L293.824 308.416Z" stroke="#2B3448" stroke-miterlimit="10"/>
<path d="M287.538 319.814L280.232 317.077L275.601 325.763L278.017 337.098L285.165 340.124L290.055 331.538L287.538 319.814Z" fill="#2B3448"/>
<path d="M297.491 358.714L264.814 343.864L269.258 299.566L303.618 311.315L297.491 358.714Z" stroke="#2B3448" stroke-miterlimit="10"/>
<path d="M187.564 308.88L183.839 307.186L185.004 270.771L188.859 272.089L187.564 308.88Z" fill="#2B3448"/>
<path d="M244.462 334.776L239.572 332.554L242.88 290.553L247.986 292.298L244.462 334.776Z" fill="#2B3448"/>
</g>
<path opacity="0.11" d="M151.881 256.888L314.089 313.889C314.089 313.889 308.897 331.136 309.285 335.228L150.097 270.645C150.097 270.645 150.96 258.356 151.881 256.888Z" fill="white"/>
<path opacity="0.26" d="M151.162 295.06L311.227 368.392C311.227 368.392 304.625 359.881 305.013 344.667L150.097 282.809C150.097 282.809 150.284 293.528 151.162 295.06Z" fill="#DC903C"/>
<mask id="mask1_1_936" style="mask-type:luminance" maskUnits="userSpaceOnUse" x="309" y="286" width="205" height="77">
<path d="M507.881 286.964L314.089 313.889C314.089 313.889 302.841 344.994 314.089 362.116L513.332 332.718C510.281 317.598 508.459 302.308 507.881 286.964Z" fill="white"/>
</mask>
<g mask="url(#mask1_1_936)">
<g opacity="0.44">
<path d="M512.942 292.322L305.574 322.348L305.699 323.005L513.067 292.979L512.942 292.322Z" fill="#74471B"/>
</g>
<g opacity="0.44">
<path d="M513.624 299.842L306.255 329.868L306.38 330.524L513.748 300.498L513.624 299.842Z" fill="#74471B"/>
</g>
<g opacity="0.44">
<path d="M512.822 308.167L305.454 338.193L305.579 338.85L512.947 308.823L512.822 308.167Z" fill="#74471B"/>
</g>
<g opacity="0.44">
<path d="M513.235 316.461L305.872 346.519L305.997 347.175L513.359 317.117L513.235 316.461Z" fill="#74471B"/>
</g>
<g opacity="0.44">
<path d="M513.626 325.57L306.264 355.627L306.389 356.284L513.751 326.226L513.626 325.57Z" fill="#74471B"/>
</g>
</g>
<path d="M126.754 189.242C126.754 189.242 110.933 216.858 126.035 248.126L338.496 305.755L499.266 267.256L485.703 264.294L482.697 211.686L497.827 208.033L296.858 155.413L126.754 189.242Z" fill="#5CA28B"/>
<path d="M485.401 211.033L334.9 238.724C334.9 238.724 311.888 276.306 341.373 299.491L487.069 264.407L485.401 211.033Z" fill="white"/>
<path opacity="0.1" d="M422.735 222.958C428.215 222.958 433.695 222.782 439.16 222.393C441.62 222.23 444.065 221.992 446.51 221.753L447.502 221.653L449.171 221.427C458.404 220.046 467.537 218.364 476.613 216.28C479.561 215.602 482.495 214.887 485.429 214.159L485.329 211.033L420.679 222.933L422.735 222.958Z" fill="#74471B"/>
<path opacity="0.1" d="M419.729 269.616C398.155 269.44 376.668 267.47 355.194 266.164C345.636 265.687 336.126 264.643 326.731 263.038C325.293 274.825 327.68 288.708 341.373 299.441L487.069 264.356L486.983 261.72C465.078 266.541 442.842 269.804 419.729 269.616Z" fill="#74471B"/>
<path opacity="0.38" d="M128.869 245.277C126.719 241.114 125.214 236.719 124.396 232.209C123.523 227.703 123.138 223.134 123.245 218.565C123.245 217.422 123.389 216.293 123.446 215.15L123.561 213.443L123.792 211.736L124.281 208.347L125.014 204.983C125.446 202.736 126.237 200.552 126.855 198.343C127.474 196.133 128.495 194.025 129.372 191.891C128.15 196.309 126.898 200.677 126.165 205.159L125.604 208.51L125.23 211.862L125.043 213.544L124.942 215.226C124.942 216.356 124.798 217.473 124.77 218.602C124.669 223.098 124.928 227.595 125.546 232.059C125.834 234.306 126.294 236.515 126.826 238.724C127.358 240.942 128.04 243.13 128.869 245.277Z" fill="#2B3448"/>
<path opacity="0.38" d="M322.546 296.78C320.409 292.632 318.914 288.255 318.102 283.763C317.234 279.256 316.854 274.687 316.965 270.118C316.965 268.976 317.095 267.846 317.167 266.704L317.282 264.997L317.512 263.29L317.986 259.9L318.72 256.536C319.151 254.289 319.942 252.105 320.561 249.896C321.179 247.687 322.201 245.578 323.078 243.457C321.855 247.862 320.618 252.243 319.885 256.712L319.324 260.064L318.95 263.415L318.749 265.097L318.648 266.779C318.648 267.909 318.504 269.026 318.49 270.156C318.382 274.652 318.641 279.148 319.267 283.612C319.564 285.851 319.991 288.076 320.547 290.278C321.06 292.479 321.727 294.65 322.546 296.78Z" fill="#2B3448"/>
<g opacity="0.23">
<path d="M146.631 232.611L176.705 237.042L150.414 219.054L136.031 220.724L146.631 232.611Z" fill="#2B3448"/>
<path d="M150.788 218.213L179.309 237.645L161 207.983L145.811 202.397L150.788 218.213Z" fill="#2B3448"/>
<path d="M146.516 233.992L178.633 238.247L150.213 247.574L136.664 242.151L146.516 233.992Z" fill="#2B3448"/>
</g>
<path opacity="0.23" d="M192.685 210.606C192.685 210.606 179.467 237.695 188.097 263.792L221.436 273.834C221.436 273.834 213.971 230.176 228.915 220.134L192.685 210.606Z" fill="#2B3448"/>
<path opacity="0.23" d="M266.856 230.176C266.856 230.176 253.063 259.775 262.268 284.365L272.609 287.88C272.609 287.88 269.733 246.733 280.088 233.176L266.856 230.176Z" fill="#2B3448"/>
<mask id="mask2_1_936" style="mask-type:luminance" maskUnits="userSpaceOnUse" x="326" y="211" width="162" height="89">
<path d="M485.401 211.033L334.9 238.724C334.9 238.724 311.888 276.306 341.373 299.491L487.069 264.407L485.401 211.033Z" fill="white"/>
</mask>
<g mask="url(#mask2_1_936)">
<g opacity="0.27">
<path d="M500.763 211.422L328.049 244.013L328.21 244.663L500.925 212.072L500.763 211.422Z" fill="#74471B"/>
<path d="M497.889 218.706L325.452 252.4L325.619 253.05L498.055 219.355L497.889 218.706Z" fill="#74471B"/>
<path d="M495.797 225.318L324.01 261.45L324.189 262.097L495.976 225.964L495.797 225.318Z" fill="#74471B"/>
<path d="M495.043 232.65L323.256 268.783L323.434 269.429L495.221 233.297L495.043 232.65Z" fill="#74471B"/>
<path d="M495.247 239.971L323.46 276.104L323.638 276.751L495.425 240.618L495.247 239.971Z" fill="#74471B"/>
<path d="M496.442 246.841L324.655 282.974L324.833 283.621L496.62 247.488L496.442 246.841Z" fill="#74471B"/>
<path d="M332.412 296.579L332.225 295.939L503.408 257.691L503.595 258.331L332.412 296.579Z" fill="#74471B"/>
<path d="M500.095 252.773L328.308 288.906L328.487 289.552L500.274 253.419L500.095 252.773Z" fill="#74471B"/>
</g>
</g>
<path opacity="0.11" d="M126.754 189.242L334.9 238.724C334.9 238.724 326.659 256.298 325.508 264.796L119.664 209.565C119.664 209.565 122.957 192.468 126.754 189.242Z" fill="white"/>
<path opacity="0.1" d="M124.266 247.737L338.568 305.755C338.568 305.755 326.602 301.675 322.747 283.361L119.664 229.674C119.664 229.674 122.54 244.724 124.266 247.737Z" fill="#2B3448"/>
<path d="M143.266 127.848C143.266 127.848 138.246 165.43 142.547 175.459L302.611 232.461L495.684 203.025L476.296 199.259L474.024 158.752L490.981 157.108L298.253 107.801L143.266 127.848Z" fill="#2B3448"/>
<path d="M479.173 158.551L307.631 177.97C307.631 177.97 287.495 211.159 312.65 224.942L480.611 201.092C480.611 201.092 479.173 156.668 479.173 158.551Z" fill="white"/>
<path opacity="0.1" d="M411.747 208.937C390.705 208.849 369.361 207.267 348.391 205.686C335.907 204.732 323.02 203.489 311.701 198.43C308.105 196.77 304.729 194.771 301.633 192.468C298.757 203.163 298.484 217.159 312.679 224.941L427.295 208.698C422.117 208.862 416.91 208.949 411.747 208.937Z" fill="#74471B"/>
<g opacity="0.54">
<path d="M156.253 156.819C156.253 157.221 155.62 157.359 154.916 157.12C154.211 156.882 153.636 156.355 153.664 155.94C153.693 155.526 154.283 155.401 154.988 155.639C155.692 155.878 156.268 156.405 156.253 156.819Z" fill="#ECB751"/>
<path d="M176.892 151.861C176.892 152.287 176.216 152.425 175.454 152.187C174.692 151.948 174.088 151.396 174.117 150.932C174.145 150.467 174.778 150.354 175.555 150.593C176.332 150.831 176.921 151.434 176.892 151.861Z" fill="#ECB751"/>
<path d="M175.425 175.183C175.425 175.597 174.764 175.723 173.987 175.447C173.21 175.171 172.635 174.618 172.664 174.191C172.693 173.765 173.326 173.652 174.102 173.928C174.879 174.204 175.454 174.769 175.425 175.183Z" fill="#ECB751"/>
<path d="M197.33 170.79C197.33 171.229 196.597 171.355 195.777 171.079C194.957 170.802 194.339 170.225 194.339 169.823C194.339 169.422 195.058 169.259 195.863 169.535C196.669 169.811 197.359 170.351 197.33 170.79Z" fill="#ECB751"/>
<path d="M149.407 135.442L148.472 154.271H148.271L148.458 154.472L147.566 172.359L202.652 192.644L205.715 152.476L149.407 135.442ZM177.669 145.609L188.298 157.723L175.785 162.078L176.231 155.011L174.606 154.484L174.188 161.338L163.962 150.304L177.669 145.609ZM163.013 149.275L151.723 137.024L176.59 144.555L163.013 149.275ZM178.834 145.333L202.839 152.651L189.391 157.321L178.834 145.333ZM176.49 163.258L189.276 158.84L201.746 173.049L188.485 176.815L176.979 164.325L191.059 169.07L191.131 168.166L176.49 163.258ZM173.613 162.292L159.087 157.421V158.288L173.11 163.02L161.46 167.074L150.213 155.024L162.912 150.681L173.613 162.292ZM173.987 164.112L173.484 172.07L175.095 172.635L175.612 164.463L187.349 177.066L174.275 180.832L162.409 168.116L173.987 164.112ZM172.995 180.945L149.839 172.434L161.345 168.455L172.995 180.945ZM188.327 178.221L200.034 190.874L175.469 181.861L188.327 178.221ZM189.477 177.895L202.206 174.33L200.998 190.334L189.477 177.895ZM190.398 158.451L203.759 153.844L202.321 172.07L190.398 158.451ZM150.802 137.613L161.92 149.651L149.982 153.769L150.802 137.613ZM160.395 167.426L149.091 171.355L149.853 156.103L160.395 167.426Z" fill="#ECB751"/>
</g>
<g opacity="0.54">
<path d="M238.68 182.978C238.68 183.393 238.062 183.531 237.343 183.28C236.624 183.029 236.077 182.514 236.091 182.112C236.106 181.711 236.71 181.573 237.429 181.811C238.148 182.05 238.709 182.577 238.68 182.978Z" fill="#ECB751"/>
<path d="M259.334 178.02C259.334 178.447 258.658 178.598 257.896 178.359C257.133 178.121 256.529 177.568 256.558 177.104C256.587 176.64 257.22 176.527 257.996 176.778C258.773 177.029 259.348 177.593 259.334 178.02Z" fill="#ECB751"/>
<path d="M257.852 201.343C257.852 201.77 257.191 201.883 256.414 201.606C255.638 201.33 255.062 200.791 255.091 200.351C255.12 199.912 255.753 199.811 256.529 200.075C257.306 200.339 257.881 200.916 257.852 201.343Z" fill="#ECB751"/>
<path d="M279.729 196.949C279.729 197.389 279.009 197.514 278.19 197.238C277.37 196.962 276.751 196.385 276.751 195.983C276.751 195.581 277.47 195.431 278.29 195.694C279.11 195.958 279.729 196.51 279.729 196.949Z" fill="#ECB751"/>
<path d="M231.849 161.614L230.899 180.443L230.698 180.518L230.885 180.706L229.993 198.594L285.079 218.891L288.142 178.723L231.849 161.614ZM260.096 171.769L270.739 183.895L258.226 188.238L258.672 181.171L257.047 180.644L256.616 187.497L246.389 176.464L260.096 171.769ZM245.44 175.434L234.092 163.183L258.974 170.777L245.44 175.434ZM261.333 171.493L285.338 178.811L271.876 183.493L261.333 171.493ZM258.917 189.405L271.703 184.999L284.173 199.209L270.926 202.975L259.42 190.497L273.486 195.242V194.326L258.917 189.405ZM256.04 188.451L241.514 183.568V184.447L255.551 189.179L243.887 193.221L232.654 181.183L245.354 176.828L256.04 188.451ZM256.414 190.259L255.925 198.217L257.536 198.782L258.039 190.61L269.747 203.276L256.716 206.966L244.865 194.263L256.414 190.259ZM255.422 207.092L232.266 198.594L243.772 194.615L255.422 207.092ZM270.768 204.381L282.432 217.008L257.867 207.996L270.768 204.381ZM271.919 204.054L284.633 200.489L283.425 216.494L271.919 204.054ZM272.825 184.598L286.186 179.991L284.748 198.23L272.825 184.598ZM233.229 163.76L244.362 175.798L232.41 179.928L233.229 163.76ZM242.837 193.573L231.518 197.514L232.294 182.263L242.837 193.573Z" fill="#ECB751"/>
</g>
<mask id="mask3_1_936" style="mask-type:luminance" maskUnits="userSpaceOnUse" x="300" y="158" width="181" height="67">
<path d="M479.173 158.551L307.631 177.97C307.631 177.97 287.495 211.159 312.65 224.942L480.611 201.092C480.611 201.092 479.173 156.668 479.173 158.551Z" fill="white"/>
</mask>
<g mask="url(#mask3_1_936)">
<g opacity="0.31">
<path d="M491.778 174.441L297.322 197.176L297.423 197.835L491.88 175.1L491.778 174.441Z" fill="#74471B"/>
</g>
<g opacity="0.31">
<path d="M491.781 185.042L297.324 207.777L297.426 208.436L491.882 185.701L491.781 185.042Z" fill="#74471B"/>
</g>
<g opacity="0.31">
<path d="M297.563 219.92L297.462 219.268L491.643 194.765L491.743 195.43L297.563 219.92Z" fill="#74471B"/>
</g>
<g opacity="0.31">
<path d="M491.976 165.166L297.134 185.233L297.223 185.893L492.065 165.827L491.976 165.166Z" fill="#74471B"/>
</g>
</g>
<path d="M344.364 180.48C344.364 180.48 366.24 208.761 361.379 244.122L371.907 236.339L380.019 243.419C380.019 243.419 380.824 195.33 366.24 179.062L344.364 180.48Z" fill="#ECB751"/>
<path opacity="0.11" d="M143.266 127.848C143.266 127.848 303.848 172.698 303.848 174.819C303.848 176.941 293.306 191.79 295.736 205.937L141.842 152.89L143.266 127.848Z" fill="white"/>
<path d="M473.981 125.136H181.854V165.857H473.981V125.136Z" fill="#DC903C"/>
<path opacity="0.11" d="M473.981 157.133H181.854V165.857H473.981V157.133Z" fill="#2B3448"/>
<path opacity="0.11" d="M473.981 125.136H181.854V140.162H473.981V125.136Z" fill="white"/>
<path opacity="0.26" d="M223.363 125.136H197.69V165.857H223.363V125.136Z" fill="#74471B"/>
<path opacity="0.26" d="M246.059 125.136H241.701V165.857H246.059V125.136Z" fill="#74471B"/>
<path opacity="0.26" d="M410.553 125.136H264.397V165.857H410.553V125.136Z" fill="#74471B"/>
<path opacity="0.26" d="M447.028 125.136H428.891V165.857H447.028V125.136Z" fill="#74471B"/>
<path d="M181.854 125.136L179.697 93.19L448.135 91.3071L473.981 125.136H181.854Z" fill="#DC903C"/>
<path d="M195.489 71.2608V107.6L380.666 125.136L451.012 105.718L441.677 102.592L442.396 73.1437L449.573 70.6457L276.593 56.863L195.489 71.2608Z" fill="#DE6C6B"/>
<path d="M445.978 71.7251L379.961 87.5539V117.617V121.383L445.057 103.37L445.978 71.7251Z" fill="white"/>
<path d="M202.661 77.9802L202.488 79.3022L366.169 95.5782L366.341 94.2562L202.661 77.9802Z" fill="#ECB751"/>
<path d="M201.846 86.4678L201.673 87.7898L365.353 104.066L365.526 102.744L201.846 86.4678Z" fill="#ECB751"/>
<path d="M201.855 94.9597L201.683 96.2817L365.363 112.558L365.535 111.236L201.855 94.9597Z" fill="#ECB751"/>
<path d="M201.855 102.732L201.683 104.054L365.363 120.33L365.535 119.008L201.855 102.732Z" fill="#ECB751"/>
<mask id="mask4_1_936" style="mask-type:luminance" maskUnits="userSpaceOnUse" x="379" y="71" width="67" height="51">
<path d="M445.978 71.7378L379.947 87.554V117.63V121.383L445.057 103.383L445.978 71.7378Z" fill="white"/>
</mask>
<g mask="url(#mask4_1_936)">
<g opacity="0.37">
<path d="M376.193 92.826L376.006 92.1858L455.154 73.6206L455.341 74.2733L376.193 92.826Z" fill="#74471B"/>
</g>
<g opacity="0.37">
<path d="M377.013 101.324L376.812 100.671L455.959 82.1187L456.161 82.7588L377.013 101.324Z" fill="#74471B"/>
</g>
<g opacity="0.37">
<path d="M377.142 108.83L376.941 108.19L456.089 89.625L456.29 90.2652L377.142 108.83Z" fill="#74471B"/>
</g>
<g opacity="0.37">
<path d="M377.948 116.613L377.746 115.973L456.894 97.4077L457.096 98.0479L377.948 116.613Z" fill="#74471B"/>
</g>
</g>
<path opacity="0.1" d="M195.489 107.6L380.666 125.136L380.019 110.462L196.079 94.1943L195.489 107.6Z" fill="#2B3448"/>
<path opacity="0.11" d="M195.489 71.2607L379.961 87.5539L380.019 96.3156L196.079 82.1689L195.489 71.2607Z" fill="white"/>
<path opacity="0.1" d="M379.947 87.554V121.383L438.355 104.801C438.355 104.801 380.695 119.814 379.947 87.554Z" fill="#74471B"/>
<path d="M168.824 32.0592C168.824 32.0592 160.352 47.1222 167.759 61.6079L321.539 87.1648L451.702 69.0013L441.821 67.4573L443.576 37.9087L451.342 36.3773L298.268 14.2095C298.268 14.2095 174.117 25.9084 168.824 32.0592Z" fill="#4D82A3"/>
<mask id="mask5_1_936" style="mask-type:luminance" maskUnits="userSpaceOnUse" x="322" y="37" width="124" height="48">
<path d="M328.817 55.771C328.817 55.771 317.167 69.9302 326.343 84.3907L443.446 67.4574L445.201 37.9087L328.817 55.771Z" fill="white"/>
</mask>
<g mask="url(#mask5_1_936)">
<path d="M328.817 55.771C328.817 55.771 317.167 69.9302 326.343 84.3907L443.446 67.4574L445.201 37.9087L328.817 55.771Z" fill="white"/>
<path opacity="0.1" d="M388.476 75.3906C375.172 75.1772 360.775 74.8509 347.859 71.8257C339.445 69.8424 332.312 65.9511 325.25 61.7837C322.805 67.2566 320.935 75.7672 326.343 84.3783L388.821 75.3906H388.476Z" fill="#74471B"/>
<g opacity="0.4">
<path d="M457.545 41.9878L316.951 61.8188L317.073 62.4775L457.667 42.6465L457.545 41.9878Z" fill="#74471B"/>
</g>
<g opacity="0.4">
<path d="M457.532 49.0723L316.937 68.9033L317.059 69.562L457.654 49.7309L457.532 49.0723Z" fill="#74471B"/>
</g>
<g opacity="0.4">
<path d="M457.535 56.1814L316.941 76.0125L317.063 76.6711L457.657 56.8401L457.535 56.1814Z" fill="#74471B"/>
</g>
<g opacity="0.4">
<path d="M457.535 61.8365L316.941 81.6675L317.063 82.3261L457.657 62.4951L457.535 61.8365Z" fill="#74471B"/>
</g>
</g>
<path d="M326.156 31.0299C333.606 32.1219 334.584 33.7287 328.356 34.6073C320.095 35.4678 311.738 35.3369 303.517 34.2182C296.038 33.1261 295.06 31.5194 301.317 30.6407C309.579 29.7929 317.934 29.9238 326.156 31.0299Z" fill="#ECB751"/>
<path d="M294.341 30.3519C290.908 30.4613 287.47 30.411 284.043 30.2013C282.303 30.1009 280.591 29.9502 279.211 29.762C277.126 29.5139 275.133 28.8526 273.386 27.8289C270.164 26.4606 261.693 25.243 252.2 24.7786C260.45 24.515 268.711 24.6826 276.938 25.2807C282.411 25.7319 287.772 26.9174 292.831 28.7954C294.269 29.2724 295.923 29.7494 297.39 30.239L294.341 30.3519Z" fill="#ECB751"/>
<path d="M332.944 35.2223C336.387 35.0982 339.834 35.1359 343.271 35.3353C344.997 35.4357 346.694 35.5738 348.075 35.7746C350.136 36.0208 352.105 36.678 353.828 37.6952C357.021 39.0509 365.435 40.2057 374.841 40.7203C366.654 40.9917 358.455 40.8324 350.29 40.2433C344.843 39.7855 339.508 38.6045 334.469 36.7412C333.031 36.2516 331.377 35.7746 329.924 35.2976L332.944 35.2223Z" fill="#ECB751"/>
<path d="M309.472 29.398C306.703 29.2185 303.955 28.8364 301.259 28.2557C300.553 28.1548 299.889 27.8952 299.332 27.5026C298.814 26.8373 302.007 26.3478 303.992 25.808C308.062 24.7034 306.869 23.1343 301.116 21.8916C308.623 22.6448 316.735 23.5234 319.626 24.7285C322.747 25.9837 318.662 27.239 315.628 28.3813C314.477 28.8081 313.47 29.2474 312.305 29.6365L309.472 29.398Z" fill="#ECB751"/>
<path d="M317.886 36.2141C320.656 36.3874 323.404 36.7696 326.098 37.3564C326.799 37.4541 327.458 37.7093 328.011 38.097C328.529 38.7623 325.35 39.2644 323.366 39.8041C319.295 40.9087 320.417 42.4778 326.156 43.7205C318.662 42.9548 310.551 42.0887 307.66 40.8836C304.539 39.6284 308.623 38.3731 311.672 37.2308C312.809 36.8041 313.815 36.3647 314.98 35.9756L317.886 36.2141Z" fill="#ECB751"/>
<path d="M324.832 30.2013C322.977 29.7117 322.114 29.1845 322.431 28.695C322.589 28.4439 323.049 28.2054 323.984 28.0172C327.857 27.5775 331.757 27.3511 335.663 27.3393C344.206 26.9878 350.045 25.8456 350.347 24.5024C353.77 25.7577 357.265 27.013 354.59 28.0674C351.714 29.2222 342.71 29.6239 334.987 30.0883L326.357 30.6406L324.832 30.2013Z" fill="#ECB751"/>
<path d="M302.525 35.4358C304.38 35.9128 305.243 36.4525 304.927 36.9421C304.769 37.1806 304.309 37.4191 303.374 37.6074C299.491 38.0452 295.581 38.2757 291.666 38.2978C283.037 38.6492 277.183 39.7915 276.924 41.1346C273.472 39.9421 269.963 38.6241 272.609 37.5697C275.486 36.4149 284.547 36.0006 292.299 35.5362L301.015 34.9839L302.525 35.4358Z" fill="#ECB751"/>
<path d="M336.54 32.7118C338.442 32.0844 340.448 31.7283 342.48 31.6574C343.918 31.557 345.515 31.4817 347.255 31.4817C351.814 31.4817 356.072 32.0466 360.372 32.4106C369.266 33.1668 378.22 33.2172 387.124 32.5612C382.234 34.0294 377.107 34.8091 371.936 34.8709C363.059 34.9333 354.186 34.5645 345.357 33.7663L335.418 33.101L336.54 32.7118Z" fill="#ECB751"/>
<path d="M290.774 32.9378C288.87 33.5727 286.858 33.9289 284.82 33.9922C283.382 34.1052 281.785 34.168 280.031 34.168C275.428 34.168 271.156 33.6031 266.842 33.2391C257.866 32.4803 248.83 32.4341 239.845 33.101C244.783 31.6207 249.957 30.8326 255.177 30.7662C264.111 30.7015 273.043 31.0744 281.929 31.8834L291.911 32.5487L290.774 32.9378Z" fill="#ECB751"/>
<path d="M187.277 34.9714C187.277 34.9714 176.921 52.7082 188.039 65.0975L201.07 67.1059C201.07 67.1059 194.166 46.0302 204.133 36.9798L187.277 34.9714Z" fill="#ECB751"/>
<path d="M278.894 50.4863C278.894 50.4863 268.553 68.2231 279.657 80.6124L292.702 82.6208C292.702 82.6208 285.798 61.5451 295.765 52.4947L278.894 50.4863Z" fill="#ECB751"/>
<path opacity="0.11" d="M168.824 32.0591L328.817 55.7708C328.817 55.7708 322.503 64.2187 321.913 70.8339L164.509 45.9045C164.509 45.9045 165.559 34.4943 168.824 32.0591Z" fill="white"/>
<g opacity="0.4">
<path d="M178.408 32.0085L178.142 33.3186L319.945 55.2522L320.212 53.9421L178.408 32.0085Z" fill="#2B3448"/>
</g>
<path opacity="0.18" d="M320.834 82.2944C320.46 81.0894 320.144 79.8843 319.885 78.6793L165.084 56.0847L167.759 61.6078L321.539 87.1648C320.727 85.6455 320.48 83.9423 320.834 82.2944Z" fill="#2B3448"/>
<path opacity="0.11" d="M189.578 27.0758C189.578 27.0758 248.964 18.1259 298.268 14.2095L389.037 27.0758H189.578Z" fill="white"/>
</g>
<defs>
<clipPath id="clip0_1_936">
<rect width="640" height="442" fill="white"/>
</clipPath>
</defs>
</svg>
